<?xml version="1.0" encoding="utf-8"?>
<!-- Generator: Adobe Illustrator 24.0.1, SVG Export Plug-In . SVG Version: 6.00 Build 0)  -->
<svg version="1.1" id="Layer_1" xmlns="http://www.w3.org/2000/svg" xmlns:xlink="http://www.w3.org/1999/xlink" x="0px" y="0px"
	 viewBox="0 0 125 51" style="enable-background:new 0 0 125 51;" xml:space="preserve">
<style type="text/css">
	.st0{fill:#FFFFFF;}
</style>
<g>
	<path class="st0" d="M32.5,39.9h-8.7V24.2H8.7v15.7H0V2.7h8.7v15.5h15.1V2.7h8.7V39.9z"/>
	<path class="st0" d="M49.9,13c1.8,0,3.4,0.3,4.8,0.8c1.5,0.5,2.7,1.3,3.8,2.4c1.1,1,1.9,2.3,2.5,3.8c0.6,1.5,0.9,3.2,0.9,5.1
		c0,0.6,0,1.1-0.1,1.5c-0.1,0.4-0.1,0.7-0.3,0.9c-0.1,0.2-0.3,0.4-0.6,0.5c-0.2,0.1-0.5,0.1-0.9,0.1H44.8c0.3,2.2,0.9,3.8,2,4.8
		c1.1,1,2.5,1.5,4.2,1.5c0.9,0,1.7-0.1,2.4-0.3c0.7-0.2,1.3-0.5,1.8-0.7c0.5-0.3,1-0.5,1.4-0.7c0.4-0.2,0.9-0.3,1.4-0.3
		c0.6,0,1.1,0.2,1.4,0.7l2.3,2.8c-0.8,0.9-1.7,1.7-2.7,2.3c-0.9,0.6-1.9,1-2.9,1.4c-1,0.3-2,0.5-3,0.7c-1,0.1-1.9,0.2-2.8,0.2
		c-1.9,0-3.6-0.3-5.2-0.9c-1.6-0.6-3-1.5-4.3-2.7c-1.2-1.2-2.2-2.7-2.9-4.4c-0.7-1.8-1-3.8-1-6.2c0-1.8,0.3-3.4,0.9-5
		c0.6-1.6,1.5-3,2.6-4.2c1.1-1.2,2.5-2.1,4.1-2.8C46.1,13.4,47.9,13,49.9,13z M50.1,18.5c-1.5,0-2.7,0.4-3.5,1.3
		c-0.9,0.9-1.4,2.1-1.7,3.7h9.9c0-0.6-0.1-1.2-0.3-1.8c-0.2-0.6-0.4-1.1-0.8-1.6c-0.4-0.5-0.8-0.9-1.4-1.1
		C51.6,18.6,50.9,18.5,50.1,18.5z"/>
	<path class="st0" d="M76.2,46.8c-0.2,0.5-0.5,0.9-0.9,1.1c-0.3,0.3-0.9,0.4-1.6,0.4h-5.9l5.1-10.7L62.3,13.4h7
		c0.6,0,1.1,0.1,1.4,0.4c0.3,0.3,0.6,0.6,0.7,1l4.3,11.4c0.4,1.1,0.7,2.1,1,3.2c0.2-0.5,0.4-1.1,0.6-1.6c0.2-0.5,0.4-1.1,0.6-1.6
		l3.9-11.4c0.1-0.4,0.4-0.7,0.8-1c0.4-0.3,0.8-0.4,1.3-0.4h6.4L76.2,46.8z"/>
	<path class="st0" d="M109,33.1c1.2,0,2.2-0.2,3.1-0.6c0.9-0.4,1.7-0.9,2.3-1.7c0.6-0.7,1.1-1.6,1.4-2.6c0.3-1,0.5-2.2,0.5-3.5v-22
		h8.6v22c0,2.3-0.4,4.4-1.1,6.3c-0.7,1.9-1.8,3.5-3.2,4.9c-1.4,1.4-3.1,2.5-5,3.2c-2,0.8-4.2,1.1-6.7,1.1c-2.5,0-4.7-0.4-6.7-1.1
		c-2-0.8-3.6-1.8-5-3.2c-1.4-1.4-2.4-3-3.2-4.9c-0.7-1.9-1.1-4-1.1-6.3v-22h8.6v22c0,1.3,0.2,2.5,0.5,3.5c0.3,1,0.8,1.9,1.5,2.6
		c0.6,0.7,1.4,1.3,2.3,1.7C106.8,32.9,107.9,33.1,109,33.1z"/>
</g>
</svg>
