<?xml version="1.0" encoding="utf-8"?>
<!-- Generator: Adobe Illustrator 24.1.3, SVG Export Plug-In . SVG Version: 6.00 Build 0)  -->
<svg version="1.1" width="32" height="32" id="icon-menu" xmlns="http://www.w3.org/2000/svg" xmlns:xlink="http://www.w3.org/1999/xlink" x="0px" y="0px"
	 viewBox="0 0 32 32" style="enable-background:new 0 0 32 32;" xml:space="preserve">
<style type="text/css">
	.st0{fill:#F4F4F4;}
</style>
<path class="st0" d="M31.5,4.4h-31C0.2,4.4,0,4.6,0,4.9v4.2c0,0.3,0.2,0.5,0.5,0.5h31c0.3,0,0.5-0.2,0.5-0.5V4.9
	C32,4.6,31.8,4.4,31.5,4.4z"/>
<path class="st0" d="M31.5,13.4h-31c-0.3,0-0.5,0.2-0.5,0.5v4.2c0,0.3,0.2,0.5,0.5,0.5h31c0.3,0,0.5-0.2,0.5-0.5v-4.2
	C32,13.6,31.8,13.4,31.5,13.4z"/>
<path class="st0" d="M31.5,22.5h-31C0.2,22.5,0,22.7,0,23v4.1c0,0.3,0.2,0.5,0.5,0.5h31c0.3,0,0.5-0.2,0.5-0.5V23
	C32,22.7,31.8,22.5,31.5,22.5z"/>
</svg>
