<?xml version="1.0" encoding="utf-8"?>
<!-- Generator: Adobe Illustrator 24.2.0, SVG Export Plug-In . SVG Version: 6.00 Build 0)  -->
<svg version="1.1" xmlns="http://www.w3.org/2000/svg" xmlns:xlink="http://www.w3.org/1999/xlink" x="0px" y="0px"
	 viewBox="0 0 60 300" style="enable-background:new 0 0 60 300;" xml:space="preserve">
<style type="text/css">
	.st0{fill:#FFFFFF;}
</style>
<g id="icon-interface">
	<path class="st0" d="M22.8,260.9c0,1.6-1.3,2.9-2.9,2.9c-1.6,0-2.9-1.3-2.9-2.9c0-1.6,1.3-2.9,2.9-2.9
		C21.5,258,22.8,259.3,22.8,260.9z"/>
	<path class="st0" d="M42.6,267.4H25.4c-0.2,0-0.4,0.2-0.4,0.4v4.4c0,0.2,0.2,0.4,0.4,0.4h17.2c0.2,0,0.4-0.2,0.4-0.4v-4.4
		C43,267.6,42.8,267.4,42.6,267.4z"/>
	<path class="st0" d="M22.8,270c0,1.6-1.3,2.9-2.9,2.9c-1.6,0-2.9-1.3-2.9-2.9c0-1.6,1.3-2.9,2.9-2.9
		C21.5,267.1,22.8,268.4,22.8,270z"/>
	<path class="st0" d="M22.8,279.1c0,1.6-1.3,2.9-2.9,2.9c-1.6,0-2.9-1.3-2.9-2.9c0-1.6,1.3-2.9,2.9-2.9
		C21.5,276.1,22.8,277.4,22.8,279.1z"/>
	<path class="st0" d="M42.6,258.4H25.4c-0.2,0-0.4,0.2-0.4,0.4v4.4c0,0.2,0.2,0.4,0.4,0.4h17.2c0.2,0,0.4-0.2,0.4-0.4v-4.4
		C43,258.5,42.8,258.4,42.6,258.4z"/>
	<path class="st0" d="M42.6,276.5H25.4c-0.2,0-0.4,0.2-0.4,0.4v4.4c0,0.2,0.2,0.4,0.4,0.4h17.2c0.2,0,0.4-0.2,0.4-0.4v-4.4
		C43,276.6,42.8,276.5,42.6,276.5z"/>
</g>
<g id="icon-favorite">
	<path class="st0" d="M30,223.5l2-2c7.3-6.8,12.1-11.3,12.1-16.9c0-4.5-3.4-8.1-7.7-8.1c-2.4,0-4.8,1.2-6.3,3.1H30
		c-1.5-1.9-3.9-3.1-6.3-3.1c-4.3,0-7.7,3.5-7.7,8.1c0,5.6,4.8,10.1,12.1,16.9L30,223.5"/>
</g>
<g id="icon-growth">
	<path class="st0" d="M28.1,151c0-0.8-0.7-1.5-1.5-1.5h-1.5c-0.8,0-1.5,0.7-1.5,1.5v10.4c0,0.8,0.7,1.5,1.5,1.5h1.5
		c0.8,0,1.5-0.7,1.5-1.5V151z"/>
	<path class="st0" d="M21.5,154.7c0-0.9-0.7-1.6-1.6-1.6h-1.3c-0.9,0-1.6,0.7-1.6,1.6v6.7c0,0.9,0.7,1.6,1.6,1.6h1.3
		c0.9,0,1.6-0.7,1.6-1.6V154.7z"/>
	<path class="st0" d="M34.6,147c0-0.8-0.7-1.5-1.5-1.5h-1.5c-0.8,0-1.5,0.7-1.5,1.5v14.4c0,0.8,0.7,1.5,1.5,1.5h1.5
		c0.8,0,1.5-0.7,1.5-1.5V147z"/>
	<path class="st0" d="M42.8,141.3l-2.9-3.7c-0.2-0.3-0.6-0.5-1-0.5c-0.4,0-0.7,0.2-1,0.5l-2.9,3.7c-0.2,0.3-0.3,0.7-0.2,1
		c0.2,0.3,0.5,0.5,1,0.5l0.8,0v18.7c0,0.8,0.7,1.5,1.5,1.5h1.5c0.8,0,1.5-0.6,1.5-1.5v-18.7l0.8,0c0.5,0,0.8-0.2,1-0.5
		C43.1,142,43,141.6,42.8,141.3z"/>
</g>
<g id="icon-days">
	<path class="st0" d="M20.3,85.2h19.5v15.7H20.3V85.2z M41.1,79.4h-2.1v-1.5c0-1.1-0.9-1.9-1.9-1.9h-0.1c-1.1,0-1.9,0.9-1.9,1.9v1.5
		H25v-1.5c0-1.1-0.9-1.9-1.9-1.9H23c-1.1,0-1.9,0.9-1.9,1.9v1.5h-2.1c-1.1,0-1.9,0.9-1.9,1.9v20.7c0,1.1,0.9,1.9,1.9,1.9h22.1
		c1.1,0,1.9-0.9,1.9-1.9V81.3C43,80.3,42.1,79.4,41.1,79.4z"/>
	<path class="st0" d="M23,92.8h3.4c0.2,0,0.3-0.1,0.3-0.3v-3.4c0-0.2-0.1-0.3-0.3-0.3H23c-0.2,0-0.3,0.1-0.3,0.3v3.4
		C22.7,92.7,22.8,92.8,23,92.8z"/>
	<path class="st0" d="M28.4,92.8h3.4c0.2,0,0.3-0.1,0.3-0.3v-3.4c0-0.2-0.1-0.3-0.3-0.3h-3.4c-0.2,0-0.3,0.1-0.3,0.3v3.4
		C28.1,92.7,28.2,92.8,28.4,92.8z"/>
	<path class="st0" d="M33.8,92.8h3.4c0.2,0,0.3-0.1,0.3-0.3v-3.4c0-0.2-0.1-0.3-0.3-0.3h-3.4c-0.2,0-0.3,0.1-0.3,0.3v3.4
		C33.5,92.7,33.6,92.8,33.8,92.8z"/>
	<path class="st0" d="M23,98.2h3.4c0.2,0,0.3-0.1,0.3-0.3v-3.4c0-0.2-0.1-0.3-0.3-0.3H23c-0.2,0-0.3,0.1-0.3,0.3v3.4
		C22.7,98.1,22.8,98.2,23,98.2z"/>
	<path class="st0" d="M28.4,98.2h3.4c0.2,0,0.3-0.1,0.3-0.3v-3.4c0-0.2-0.1-0.3-0.3-0.3h-3.4c-0.2,0-0.3,0.1-0.3,0.3v3.4
		C28.1,98.1,28.2,98.2,28.4,98.2z"/>
	<path class="st0" d="M33.8,98.2h3.4c0.2,0,0.3-0.1,0.3-0.3v-3.4c0-0.2-0.1-0.3-0.3-0.3h-3.4c-0.2,0-0.3,0.1-0.3,0.3v3.4
		C33.5,98.1,33.6,98.2,33.8,98.2z"/>
</g>
<g id="icon-sound">
	<path class="st0" d="M38.8,35.2v-7.1c0-4.1-2.9-7.3-6.8-8.1v-1c0-1-1-2-2-2s-2,1-2,2v1c-3.9,1-6.8,4.2-6.8,8.1v7.1l-2.7,2.6v1.3h23
		v-1.3L38.8,35.2z M30,43c1.5,0,2.7-1.1,2.7-2.6h-5.4C27.3,41.9,28.5,43,30,43z"/>
</g>
</svg>
