<?xml version="1.0" encoding="utf-8"?>
<!-- Generator: Adobe Illustrator 20.1.0, SVG Export Plug-In . SVG Version: 6.00 Build 0)  -->
<svg version="1.1" id="Camada_1" xmlns="http://www.w3.org/2000/svg" xmlns:xlink="http://www.w3.org/1999/xlink" x="0px" y="0px"
	 viewBox="0 0 186 46" style="enable-background:new 0 0 186 46;" xml:space="preserve">
<style type="text/css">
	.st0{fill:none;enable-background:new    ;}
	.st1{fill:#FFE600;}
	.st2{fill:#4F4400;}
	.st3{fill:#998600;}
</style>
<path class="st0" d="M0,0"/>
<g>
	<g>
		<path class="st1" d="M58.8,32.9c0,0,0-0.1,0-0.3s0-0.3,0-0.4s0-0.3,0-0.4s0-0.2,0-0.3c0-0.7,0-1.3,0.1-1.9
			c0.1-0.5,0.2-1.1,0.3-1.6s0.3-1.1,0.5-1.6s0.4-1.2,0.6-1.8c0,0,0-0.1,0-0.2s0-0.2,0-0.2s-0.1-0.1-0.4-0.2
			c-0.3-0.1-0.7-0.4-1.2-0.6c-0.5-0.3-1-0.6-1.5-1s-1-0.9-1.5-1.4c-0.4-0.5-0.8-1.1-1.1-1.8c-0.3-0.7-0.4-1.4-0.3-2.2h0.1
			c0.1,0,0.2,0,0.2,0c0.1,0,0.2,0,0.3,0H55c0.1,0.3,0.3,0.7,0.5,1.1s0.4,0.8,0.7,1.2c0.3,0.4,0.6,0.8,0.9,1.2
			c0.3,0.4,0.7,0.8,1.1,1.1c0.4,0.3,0.8,0.6,1.2,0.8c0.4,0.2,0.8,0.3,1.3,0.3c0.3-0.7,0.5-1.2,0.7-1.6s0.3-0.7,0.4-0.9
			c0.1-0.2,0.2-0.4,0.2-0.5s0.1-0.2,0.1-0.3c0-0.1,0-0.3,0-0.4s0.1-0.4,0.1-0.8c0-0.1,0.1-0.1,0.2-0.2c0.1-0.1,0.3-0.1,0.4-0.1
			c0.1,0,0.3,0,0.4,0c0.1,0,0.2,0.1,0.2,0.3c0,0.9-0.1,1.7-0.3,2.6c-0.2,0.8-0.4,1.6-0.7,2.4s-0.6,1.5-0.9,2.3s-0.6,1.5-0.9,2.3
			c-0.2,0.8-0.4,1.6-0.5,2.5s-0.1,1.8,0.1,2.8c-0.1,0.2-0.2,0.3-0.3,0.4s-0.2,0.1-0.4,0.1s-0.3,0-0.4-0.1
			C59.1,33.2,58.9,33.1,58.8,32.9z"/>
		<path class="st1" d="M67.4,19.1c-0.1,0-0.1,0-0.2,0c0.1,0.2,0.1,0.3,0.1,0.3v4.4c0.1,0.1,0.3,0.2,0.7,0.2s0.9,0,1.4-0.1
			c0.5,0,1.1-0.1,1.7-0.2c0.6-0.1,1.2-0.2,1.7-0.3c0.5-0.1,1-0.2,1.3-0.2c0.4-0.1,0.6-0.1,0.6,0c0,0,0.1,0,0.3,0c0.1,0,0.3,0,0.5,0
			s0.3,0,0.4,0c0.1,0,0.2,0,0.3,0c0,0.4-0.2,0.7-0.6,1c-0.4,0.2-1,0.4-1.6,0.6c-0.7,0.1-1.4,0.2-2.1,0.3c-0.8,0.1-1.5,0.1-2.1,0.2
			c-0.7,0-1.2,0.1-1.7,0.2c-0.5,0-0.7,0.1-0.8,0.2c-0.1,0.3-0.2,0.6-0.2,0.9s-0.1,0.7-0.1,1s0,0.7,0,1s0,0.6,0,0.9
			c0,0.1,0,0.2,0,0.3c0,0.2,0,0.3,0,0.5s0,0.3,0,0.5s0,0.3,0,0.3c0.1,0.2,0.2,0.3,0.4,0.4s0.5,0.1,0.7,0.2c0.3,0,0.5,0,0.7,0
			c0.3,0,0.4,0,0.5,0c0.6,0,1.1,0,1.7-0.1c0.6-0.1,1.1-0.1,1.6-0.2s1.1-0.1,1.6-0.2s1.1-0.1,1.6-0.1h0.1H76c0.1,0,0.1,0,0.2,0.1
			c0.1,0,0.1,0.1,0.2,0.1c0.1,0,0.1,0,0.1,0s0.1,0,0.1,0.1c0.1,0,0.1,0.1,0.1,0.1c0,0.3-0.2,0.6-0.5,0.8c-0.3,0.2-0.8,0.4-1.3,0.5
			s-1.1,0.2-1.7,0.3c-0.6,0.1-1.2,0.1-1.8,0.1s-1.1,0-1.5,0s-0.7,0-0.8,0c-0.7,0-1.2-0.1-1.7-0.2s-0.9-0.3-1.2-0.6
			c-0.3-0.3-0.6-0.6-0.7-1.1c-0.2-0.5-0.2-1.1-0.2-1.8c0-0.6,0-1.2,0.1-1.9c0.1-0.6,0.1-1.2,0.1-1.9c0-0.3,0-0.5-0.1-0.7
			s-0.1-0.4-0.1-0.6v-0.1c0,0,0.1-0.1,0.2-0.2c0.1-0.1,0.1-0.2,0.2-0.2v-5.4c0-0.3,0-0.5,0.1-0.6s0.2-0.2,0.4-0.3
			c0.2,0,0.5-0.1,0.9,0c0.4,0,0.9,0,1.6,0.1c0.7,0,1.5,0.1,2.6,0.1c1,0,2.3,0,3.7,0c0.2,0.1,0.3,0.1,0.5,0.2s0.3,0.2,0.5,0.3
			c0.1,0.1,0.2,0.2,0.3,0.4c0.1,0.1,0.1,0.3,0.1,0.5c0,0,0,0.1-0.1,0.2s-0.1,0.1-0.1,0.1L75.1,19L67.4,19.1z"/>
		<path class="st1" d="M79.4,29.1c0-0.6,0.1-1.2,0.1-1.9c0-0.7,0.1-1.4,0.2-2.2c0.1-0.7,0.1-1.4,0.2-2.1c0.1-0.7,0.2-1.3,0.3-1.8
			s0.2-0.9,0.4-1.2c0.2-0.3,0.3-0.4,0.5-0.3c0.2,0,0.4,0.2,0.4,0.5c0.1,0.3,0.1,0.8,0.1,1.3s-0.1,1.1-0.2,1.8
			c-0.1,0.7-0.2,1.4-0.3,2.1s-0.2,1.4-0.2,2.1c-0.1,0.7-0.1,1.4,0,1.9c0,0.2,0,0.3,0.1,0.5s0.1,0.4,0.2,0.5c0.1,0.2,0.2,0.3,0.4,0.4
			s0.3,0.2,0.5,0.2l4.9,0.4c0.1,0,0.2,0.1,0.3,0.2c0,0.1,0,0.3,0,0.3c0,0.3-0.1,0.5-0.3,0.6c-0.2,0.1-0.4,0.2-0.7,0.2
			c-0.1,0-0.2,0-0.4,0c-0.2,0-0.4,0-0.5,0c-0.2,0-0.4,0-0.5,0c-0.2,0-0.3,0-0.3,0c-0.7,0-1.4-0.1-2.1-0.2c-0.6-0.1-1.2-0.3-1.6-0.6
			c-0.4-0.3-0.8-0.7-1-1.2C79.4,30.5,79.4,29.9,79.4,29.1z"/>
		<path class="st1" d="M88.8,29.1c0-0.6,0.1-1.2,0.1-1.9c0-0.7,0.1-1.4,0.2-2.2c0.1-0.7,0.1-1.4,0.2-2.1s0.2-1.3,0.3-1.8
			c0.1-0.5,0.2-0.9,0.4-1.2c0.2-0.3,0.3-0.4,0.5-0.3c0.2,0,0.4,0.2,0.4,0.5c0.1,0.3,0.1,0.8,0.1,1.3s-0.1,1.1-0.2,1.8
			c-0.1,0.7-0.2,1.4-0.3,2.1c-0.1,0.7-0.2,1.4-0.2,2.1c-0.1,0.7-0.1,1.4,0,1.9c0,0.2,0,0.3,0.1,0.5s0.1,0.4,0.2,0.5
			c0.1,0.2,0.2,0.3,0.4,0.4c0.2,0.1,0.3,0.2,0.5,0.2l4.9,0.4c0.1,0,0.2,0.1,0.3,0.2c0,0.1,0,0.3,0,0.3c0,0.3-0.1,0.5-0.3,0.6
			c-0.2,0.1-0.4,0.2-0.7,0.2c-0.1,0-0.2,0-0.4,0c-0.2,0-0.4,0-0.5,0c-0.2,0-0.4,0-0.5,0c-0.2,0-0.3,0-0.3,0c-0.7,0-1.4-0.1-2.1-0.2
			c-0.6-0.1-1.2-0.3-1.6-0.6c-0.4-0.3-0.8-0.7-1-1.2C88.8,30.5,88.8,29.9,88.8,29.1z"/>
		<path class="st1" d="M97.4,26.2c0-0.7,0.1-1.4,0.3-2c0.2-0.6,0.5-1.2,0.9-1.6c0.4-0.5,0.9-0.9,1.5-1.2c0.6-0.3,1.2-0.4,1.9-0.5
			c1.2,0.2,2.4,0.5,3.5,0.9s2.1,1,3,1.7s1.6,1.5,2.1,2.4s0.8,1.9,0.9,3.1c-0.2,0.8-0.5,1.5-1,2s-1.1,0.9-1.8,1.1
			c-0.7,0.3-1.4,0.5-2.2,0.6c-0.8,0.1-1.5,0.2-2.1,0.3c-1,0-1.9-0.2-2.8-0.5s-1.6-0.8-2.2-1.4s-1.1-1.3-1.4-2.1
			C97.6,28.2,97.4,27.2,97.4,26.2z M98.6,26.1c0,0.7,0.1,1.4,0.5,2.1c0.3,0.7,0.8,1.2,1.3,1.7s1.1,0.9,1.8,1.2
			c0.7,0.3,1.3,0.5,2,0.6c0.2,0,0.5,0,0.9-0.1c0.4,0,0.8-0.1,1.2-0.2c0.4-0.1,0.9-0.2,1.3-0.4c0.4-0.2,0.9-0.3,1.2-0.6
			c0.4-0.2,0.7-0.5,0.9-0.8c0.2-0.3,0.4-0.6,0.4-1c-0.1-0.8-0.4-1.5-0.7-2.2c-0.4-0.6-0.9-1.2-1.4-1.7c-0.6-0.5-1.2-0.9-1.8-1.2
			c-0.7-0.3-1.3-0.6-1.9-0.8c-0.6-0.2-1.2-0.3-1.8-0.4c-0.6-0.1-1-0.1-1.4,0c-0.5,0.2-0.9,0.4-1.2,0.7c-0.3,0.3-0.6,0.6-0.8,0.9
			c-0.2,0.3-0.3,0.7-0.4,1C98.7,25.4,98.6,25.7,98.6,26.1z"/>
		<path class="st1" d="M121.2,30.2L121.2,30.2L121.2,30.2L121.2,30.2c-0.8,0.7-1.4,1.2-1.8,1.5c-0.4,0.4-0.8,0.6-1,0.8
			c-0.3,0.2-0.4,0.3-0.6,0.3c-0.1,0-0.2,0-0.2,0c-0.6,0-1.2-0.2-1.6-0.5s-0.8-0.8-1.1-1.4c-0.3-0.6-0.5-1.2-0.7-1.9
			c-0.2-0.7-0.3-1.4-0.4-2.1s-0.2-1.4-0.2-2s-0.1-1.1-0.1-1.6c0,0,0-0.2,0-0.5s0-0.6,0.1-1c0-0.3,0.1-0.7,0.3-0.9
			c0.2-0.3,0.4-0.4,0.6-0.4c0.1,0,0.2,0.2,0.2,0.5s0.1,0.7,0.1,1.2s0.1,1,0.1,1.7c0,0.6,0.1,1.3,0.2,2s0.1,1.3,0.2,2
			c0.1,0.6,0.2,1.2,0.4,1.7c0.2,0.5,0.4,0.9,0.6,1.2c0.3,0.3,0.6,0.5,0.9,0.5s0.6-0.1,0.8-0.2c0.3-0.2,0.5-0.4,0.7-0.6
			s0.4-0.5,0.6-0.7s0.4-0.4,0.5-0.6s0.2-0.5,0.2-0.8s0.1-0.6,0.1-0.9s0-0.6,0-0.9s0-0.5,0-0.7c0.1-0.2,0.2-0.4,0.3-0.5
			c0.1-0.1,0.2-0.1,0.3-0.1c0.1,0,0.2,0.1,0.3,0.3c0.1,0.1,0.2,0.3,0.3,0.5c0.1,0.5,0.2,1.1,0.4,1.7c0.2,0.6,0.5,1.2,0.8,1.8
			c0.3,0.5,0.8,1,1.3,1.4s1.1,0.5,1.8,0.5c0.4,0,0.7-0.1,1.1-0.2s0.7-0.3,1-0.6c0.3-0.3,0.5-0.6,0.7-0.9s0.3-0.7,0.3-1.1
			c0-0.6-0.1-1.2-0.3-1.8c-0.2-0.6-0.4-1.2-0.7-1.7c-0.2-0.6-0.5-1.2-0.7-1.7c-0.2-0.6-0.3-1.2-0.3-1.8c0.2-0.5,0.4-0.6,0.7-0.6
			c0.3,0.1,0.5,0.3,0.8,0.7c0.3,0.4,0.5,0.9,0.7,1.6c0.2,0.6,0.4,1.3,0.6,2s0.3,1.3,0.4,1.9c0.1,0.6,0.1,1,0.1,1.3
			c0,0.6-0.1,1.2-0.4,1.8c-0.3,0.6-0.6,1.1-1.1,1.5c-0.4,0.4-1,0.8-1.5,1c-0.6,0.3-1.2,0.4-1.8,0.4c-0.5,0-1-0.1-1.4-0.4
			c-0.5-0.3-0.9-0.6-1.2-1c-0.4-0.4-0.7-0.7-1-1C121.6,30.3,121.3,30.2,121.2,30.2z"/>
		<path class="st2" d="M145.8,32c0-0.2-0.1-0.4-0.1-0.8s-0.1-0.8-0.1-1.2c0-0.4-0.1-0.9-0.1-1.4s-0.1-1-0.1-1.4s-0.1-0.8-0.1-1.2
			c0-0.3-0.1-0.6-0.1-0.8c0-0.2,0-0.4,0-0.6s0-0.5,0-0.8s-0.1-0.5-0.2-0.7c-0.1-0.2-0.2-0.4-0.4-0.5c-0.6,0.3-1.2,0.6-1.8,0.7
			c-0.6,0.2-1.2,0.2-1.9,0.2c-1,0-1.9-0.6-2.9-1.8c-0.1,0-0.1,0-0.1,0.1s0,0.2-0.1,0.3c0,0.1,0,0.3,0,0.4s0,0.3,0,0.4v8.2
			c0,0.1,0,0.2-0.1,0.3c-0.1,0.1-0.1,0.1-0.2,0.2c-0.1,0-0.2,0.1-0.3,0.1c-0.1,0-0.2,0-0.3,0c-0.3,0-0.4-0.1-0.5-0.3
			c-0.1-0.2-0.2-0.4-0.2-0.6v-3.5c0-1.1,0-2.1,0.1-3.2c0.1-1,0.1-2.1,0.1-3.2c0-0.3-0.1-0.6-0.2-0.9c-0.1-0.3-0.3-0.5-0.4-0.8
			c-0.1-0.3-0.3-0.5-0.4-0.8c-0.1-0.3-0.2-0.5-0.2-0.8s0.2-0.5,0.5-0.5c0.4,0,0.7,0.1,1,0.4c0.3,0.2,0.5,0.5,0.7,0.9
			c0.2,0.3,0.4,0.7,0.6,1.1s0.4,0.8,0.7,1.1c0.3,0.3,0.6,0.6,0.9,0.9c0.4,0.2,0.8,0.4,1.3,0.4c0.7,0,1.2-0.1,1.6-0.3
			c0.4-0.2,0.8-0.5,1-0.9c0.3-0.4,0.5-0.8,0.7-1.2c0.2-0.4,0.3-0.8,0.5-1.2c0.1-0.4,0.3-0.7,0.4-0.9c0.2-0.2,0.4-0.3,0.6-0.3
			s0.3,0,0.4,0.1c0.1,0.1,0.2,0.3,0.2,0.4c0,0.2,0.1,0.3,0.1,0.5s0,0.3,0,0.3c0,0.6,0,1.2-0.1,1.8c-0.1,0.6-0.1,1.2-0.1,1.8
			c0,0.8,0.1,1.7,0.2,2.5c0.1,0.8,0.2,1.6,0.4,2.5c0.2,0.8,0.3,1.6,0.4,2.5c0.1,0.8,0.2,1.6,0.2,2.4c0,0.1,0,0.2,0,0.3
			c0,0.1-0.1,0.1-0.1,0.2c-0.1,0-0.1,0-0.2,0c-0.1,0-0.2,0-0.3,0c-0.2,0-0.4,0-0.6-0.1S145.8,32.3,145.8,32z"/>
		<path class="st2" d="M149.1,27.5c0-0.9,0.2-1.7,0.6-2.3c0.4-0.7,0.9-1.2,1.5-1.7c0.6-0.5,1.3-0.8,2.1-1c0.8-0.2,1.6-0.3,2.4-0.3
			c0.4,0,0.8,0.1,1.2,0.2c0.4,0.2,0.7,0.4,1,0.6c0.3,0.3,0.6,0.6,0.9,0.9c0.3,0.4,0.5,0.7,0.7,1.1s0.3,0.8,0.4,1.1
			c0.1,0.4,0.1,0.8,0.1,1.1c0,0.8-0.2,1.6-0.5,2.2c-0.3,0.7-0.8,1.2-1.3,1.6c-0.6,0.4-1.2,0.8-1.9,1s-1.4,0.4-2.1,0.4
			s-1.4-0.1-2.1-0.4c-0.6-0.2-1.2-0.6-1.6-1c-0.5-0.4-0.8-0.9-1.1-1.6C149.1,29,149.1,28.3,149.1,27.5z M150.2,27.3
			c0,0.5,0.1,1,0.3,1.5c0.2,0.5,0.4,0.9,0.8,1.2c0.4,0.3,0.7,0.6,1.2,0.8c0.5,0.2,0.9,0.3,1.5,0.3c0.3,0,0.6,0,1-0.1
			c0.4-0.1,0.8-0.3,1.2-0.5c0.4-0.2,0.8-0.5,1.1-0.9c0.4-0.3,0.7-0.7,0.9-1.1s0.4-0.8,0.5-1.2c0.1-0.4,0-0.9-0.2-1.3
			c-0.2-0.4-0.6-0.8-1.1-1.2c-0.5-0.4-1.3-0.8-2.2-1.1c-0.5,0-1.1,0.1-1.7,0.2c-0.6,0.2-1.1,0.4-1.6,0.7c-0.5,0.3-0.9,0.7-1.2,1.2
			C150.3,26.2,150.2,26.7,150.2,27.3z"/>
		<path class="st2" d="M162.1,27.5c0-0.9,0.2-1.7,0.6-2.3c0.4-0.7,0.9-1.2,1.5-1.7c0.6-0.5,1.3-0.8,2.1-1c0.8-0.2,1.6-0.3,2.4-0.3
			c0.4,0,0.8,0.1,1.2,0.2c0.4,0.2,0.7,0.4,1,0.6c0.3,0.3,0.6,0.6,0.9,0.9c0.3,0.4,0.5,0.7,0.7,1.1s0.3,0.8,0.4,1.1
			c0.1,0.4,0.1,0.8,0.1,1.1c0,0.8-0.2,1.6-0.5,2.2c-0.3,0.7-0.8,1.2-1.3,1.6c-0.6,0.4-1.2,0.8-1.9,1c-0.7,0.2-1.4,0.4-2.1,0.4
			s-1.4-0.1-2.1-0.4c-0.6-0.2-1.2-0.6-1.6-1c-0.5-0.4-0.8-0.9-1.1-1.6C162.2,29,162.1,28.3,162.1,27.5z M163.3,27.3
			c0,0.5,0.1,1,0.3,1.5s0.4,0.9,0.8,1.2s0.7,0.6,1.2,0.8c0.5,0.2,0.9,0.3,1.5,0.3c0.3,0,0.6,0,1-0.1c0.4-0.1,0.8-0.3,1.2-0.5
			c0.4-0.2,0.8-0.5,1.1-0.9c0.4-0.3,0.7-0.7,0.9-1.1c0.2-0.4,0.4-0.8,0.5-1.2c0.1-0.4,0-0.9-0.2-1.3s-0.6-0.8-1.1-1.2
			c-0.5-0.4-1.3-0.8-2.2-1.1c-0.5,0-1.1,0.1-1.7,0.2c-0.6,0.2-1.1,0.4-1.6,0.7c-0.5,0.3-0.9,0.7-1.2,1.2
			C163.6,26.2,163.3,26.7,163.3,27.3z"/>
		<path class="st2" d="M175.6,23c0-0.1,0.1-0.2,0.2-0.3c0.1,0,0.2-0.1,0.4-0.1c0.1,0,0.2,0,0.2,0.1c0,0,0.1,0.1,0.1,0.2
			s0,0.1,0.1,0.2c0,0.1,0.1,0.1,0.2,0.1c0.2,0,0.5-0.1,0.8-0.3c0.3-0.2,0.7-0.4,1.1-0.6c0.4-0.2,0.8-0.4,1.2-0.6
			c0.4-0.2,0.9-0.3,1.3-0.3c0.6,0,1.1,0.1,1.5,0.4c0.5,0.3,0.9,0.7,1.2,1.1c0.4,0.5,0.7,1,0.9,1.6c0.3,0.6,0.5,1.2,0.7,1.8
			c0.2,0.6,0.3,1.2,0.4,1.8c0.1,0.6,0.1,1.1,0.1,1.5c0,0.1,0,0.4,0,0.7c0,0.3-0.1,0.6-0.1,0.9c-0.1,0.3-0.2,0.5-0.3,0.8
			c-0.1,0.2-0.3,0.3-0.5,0.3c0,0-0.1,0-0.2,0c-0.1,0-0.2,0-0.2,0c-0.1,0-0.2-0.1-0.2-0.1c-0.1,0-0.1-0.1-0.1-0.1
			c0.1-1.3,0.1-2.4,0-3.5c-0.1-1.1-0.4-2.1-0.7-2.9s-0.7-1.5-1.2-2s-1-0.7-1.5-0.7s-1,0.1-1.4,0.2c-0.4,0.2-0.8,0.4-1.1,0.7
			c-0.3,0.3-0.6,0.7-0.8,1.1s-0.3,0.9-0.3,1.4s0,1,0.1,1.6c0.1,0.5,0.2,1,0.3,1.5c0.1,0.5,0.2,1,0.3,1.6c0.1,0.5,0.1,1,0.1,1.6
			c-0.5,0-0.8-0.2-1.1-0.6c-0.3-0.4-0.6-0.9-0.7-1.4c-0.2-0.6-0.3-1.2-0.4-2c-0.1-0.7-0.2-1.5-0.2-2.2s-0.1-1.4-0.1-2
			C175.6,23.8,175.6,23.3,175.6,23z"/>
	</g>
	<g>
		<path class="st1" d="M23.2,4.6c-6.2,0-11.7,3.1-15,7.8c6.9,10.3,17.7,17,29.8,17c0.8,0,1.6,0,2.4-0.1c0.7-2,1.1-4.1,1.1-6.3
			C41.6,12.9,33.4,4.6,23.2,4.6z"/>
		<g>
			<g>
				<circle class="st2" cx="18.4" cy="13.7" r="5.1"/>
				<circle class="st2" cx="30.9" cy="15.9" r="4.2"/>
				<circle class="st2" cx="35.1" cy="24.9" r="1.4"/>
			</g>
			<path class="st2" d="M23.2,46.2C10.4,46.2,0.1,35.8,0.1,23S10.4-0.2,23.2-0.2S46.4,10.2,46.4,23S36.1,46.2,23.2,46.2L23.2,46.2z
				 M16.4,40c2.2,0.9,4.5,1.3,6.8,1.3c2.6,0,5-0.5,7.4-1.6c-1.2-0.9-1.8-2.3-1.8-3.8c0-2.6,2.2-4.8,4.8-4.8c1.9,0,3.5,1.1,4.3,2.7
				c2.4-3.2,3.6-7,3.6-10.9c0-10.1-8.2-18.3-18.3-18.3S4.9,12.8,4.9,22.9c0,4.2,1.4,8.1,4,11.4c0.9-0.8,2-1.2,3.2-1.2
				c2.6,0,4.8,2.2,4.8,4.8C16.9,38.7,16.8,39.3,16.4,40L16.4,40z M22.9,37.3c-1.4,0-2.6-1.2-2.6-2.6s1.2-2.6,2.6-2.6
				c1.4,0,2.6,1.2,2.6,2.6C25.4,36.1,24.2,37.3,22.9,37.3L22.9,37.3z M8.4,27.5c-0.7,0-1.3-0.6-1.3-1.3c0-0.7,0.6-1.3,1.3-1.3
				s1.3,0.6,1.3,1.3S9.1,27.5,8.4,27.5L8.4,27.5z"/>
		</g>
		<path class="st3" d="M33.6,31.2c1.9,0,3.5,1.1,4.3,2.7c1.1-1.4,1.9-3,2.5-4.6c-0.2,0-0.3,0-0.5,0c-0.6,0-1.2,0.1-1.9,0.1
			c-0.4,0-0.8,0-1.1,0c-0.9,0-1.7-0.1-2.5-0.2C23.8,28,14.6,21.7,8.3,12.5C6.2,15.5,5,19.1,5,23c0,4.2,1.4,8.1,4,11.4
			c0.9-0.8,2-1.2,3.2-1.2c2.6,0,4.8,2.2,4.8,4.8c0,0.7-0.1,1.4-0.4,2c2.2,0.9,4.5,1.3,6.8,1.3c2.6,0,5-0.5,7.4-1.6
			c-1.2-0.9-1.8-2.3-1.8-3.8C28.9,33.3,30.9,31.2,33.6,31.2z M8.4,27.5c-0.7,0-1.3-0.6-1.3-1.3c0-0.7,0.6-1.3,1.3-1.3
			s1.3,0.6,1.3,1.3S9.1,27.5,8.4,27.5z M22.9,37.3c-1.4,0-2.6-1.2-2.6-2.6s1.2-2.6,2.6-2.6c1.4,0,2.6,1.2,2.6,2.6
			C25.4,36.1,24.2,37.3,22.9,37.3z"/>
	</g>
</g>
</svg>
