<svg xmlns="http://www.w3.org/2000/svg" xmlns:xlink="http://www.w3.org/1999/xlink">

  <symbol id="menu" viewBox="0 0 32 32">
    <title>Menu</title>
<path class="st0" d="M29.1,4.4H2.9C1.3,4.4,0,5.6,0,7s1.3,2.6,2.9,2.6h26.1C30.7,9.5,32,8.4,32,7S30.7,4.4,29.1,4.4z" fill="#fff"/>
<path class="st0" d="M29.1,13.4H2.9C1.3,13.4,0,14.6,0,16s1.3,2.6,2.9,2.6h26.1c1.6,0,2.9-1.2,2.9-2.6S30.7,13.4,29.1,13.4z" fill="#fff"/>
<path class="st0" d="M29.1,22.5H2.9C1.3,22.5,0,23.6,0,25c0,1.4,1.3,2.6,2.9,2.6h26.1c1.6,0,2.9-1.2,2.9-2.6
	C32,23.6,30.7,22.5,29.1,22.5z" fill="#fff"/>
  </symbol>

  <symbol id="close" viewBox="0 0 32 32">
    <title>Close</title>
<path class="st0" d="M19.7,16l7.6-7.6c1.2-1.2,1.3-2.9,0.3-4c-1-1-2.8-0.9-4,0.3L16,12.3L8.4,4.7c-1.2-1.2-2.9-1.3-4-0.3
	s-0.9,2.8,0.3,4l7.6,7.6l-7.6,7.6c-1.2,1.2-1.3,2.9-0.3,4s2.8,0.9,4-0.3l7.6-7.6l7.6,7.6c1.2,1.2,2.9,1.3,4,0.3c1-1,0.9-2.8-0.3-4
	L19.7,16z" fill="#fff"/>
  </symbol>

<symbol id="icon-chat" viewBox="0 0 48 44" width="48" height="44">
  <title>Chat</title>
  <path d="M5,36c-0.4,0-0.8-0.2-0.9-0.6C3.9,35,4,34.6,4.3,34.3c1.6-2,2.5-4.3,2.7-6.8c-4.5-2.9-7-7.1-7-12
    C0,7,8.5,0,19,0s19,7,19,15.5S29.5,31,19,31h-3.5C12.8,34,9,35.8,5,36z M19,2C9.6,2,2,8.1,2,15.5c0,4.4,2.3,8.1,6.6,10.6
    C8.8,26.3,9,26.6,9,27c-0.1,2.3-0.8,4.6-1.9,6.7c2.8-0.6,5.3-2.1,7.1-4.3c0.2-0.2,0.5-0.4,0.8-0.4h4c9.4,0,17-6,17-13.5S28.4,2,19,2
    z"/>
  <path d="M43,44L43,44c-4-0.2-7.8-2-10.5-5H29c-4.1,0-8-1.1-11.5-3.2c-0.5-0.3-0.6-0.9-0.3-1.4c0,0,0,0,0,0
    c0.3-0.5,0.9-0.6,1.4-0.3C21.7,36.1,25.3,37,29,37h4c0.3,0,0.6,0.1,0.8,0.4c1.8,2.2,4.3,3.7,7.1,4.3c-1.1-2.1-1.8-4.4-1.9-6.7
    c0-0.4,0.2-0.7,0.5-0.9c4.2-2.5,6.5-6.2,6.5-10.6c0-2.4-1.9-6-4.7-8.8c-0.4-0.4-0.4-1,0-1.4c0.4-0.4,1-0.4,1.4,0
    c3.2,3.2,5.3,7.2,5.3,10.2c0,4.9-2.5,9.2-7,12c0.2,2.5,1.2,4.9,2.7,6.8c0.4,0.4,0.4,1,0,1.4C43.5,43.9,43.3,44,43,44z"/>
</symbol>


  <symbol id="icon-call" viewBox="0 0 48 49" width="48" height="49">
  <title>Call</title>
    <path d="M38.6,48.5c-2,0-4.7-0.9-8-2.7c-5.8-3.4-11-7.6-15.7-12.4C5.2,23.6-3,11,1.1,6.9l0.1-0.1l7.1-6.1
    c0.4-0.4,1.1-0.3,1.4,0.1c0,0,0,0,0,0l9,11c0.3,0.4,0.3,0.9,0,1.2l-4.4,6.3l14.8,14.8l6.3-4.5c0.4-0.3,0.9-0.3,1.2,0l11,9
    c0.4,0.3,0.5,1,0.1,1.4c0,0,0,0,0,0l-6.1,7.2l-0.1,0.1C40.8,48.2,39.7,48.6,38.6,48.5z M2.5,8.3C0.2,10.7,5.4,21,16.3,31.9
    c4.5,4.7,9.7,8.7,15.3,12.1c5,2.8,7.7,2.9,8.6,2l5.4-6.4L36,31.8l-6.4,4.6c-0.4,0.3-0.9,0.2-1.3-0.1l-16-16
    c-0.3-0.3-0.4-0.9-0.1-1.3l4.6-6.4L8.9,2.9L2.5,8.3z"/>
  <path d="M47,12.5c-0.6,0-1-0.4-1-1v-9h-9c-0.6,0-1-0.4-1-1s0.4-1,1-1h10c0.6,0,1,0.4,1,1v10C48,12.1,47.6,12.5,47,12.5z
    " fill="#fff"/>
  <path d="M31,18.5c-0.3,0-0.5-0.1-0.7-0.3c-0.4-0.4-0.4-1,0-1.4l16-16c0.3-0.4,1-0.5,1.4-0.2s0.5,1,0.2,1.4
    c0,0.1-0.1,0.1-0.2,0.2l-16,16C31.5,18.4,31.3,18.5,31,18.5z"/>

  </symbol>

  <symbol id="icon-picture" viewBox="0 0 48 40" width="48" height="40">
    <title>Picture</title>
    <path class="st0" d="M24,31.5c-5.5,0-10-4.5-10-10s4.5-10,10-10s10,4.5,10,10S29.5,31.5,24,31.5z M24,13.5c-4.4,0-8,3.6-8,8
      s3.6,8,8,8s8-3.6,8-8S28.4,13.5,24,13.5C24,13.5,24,13.5,24,13.5z"/>
    <path class="st0" d="M43.9,40H4.1c-2.2,0-4-1.7-4.1-3.9c0,0,0,0,0-0.1V10c0-2.2,1.8-4,4-4c0,0,0,0,0.1,0h7.3l2.7-5.4
      C14.3,0.2,14.6,0,15,0h18c0.4,0,0.7,0.2,0.9,0.6L36.6,6h7.3c2.2,0,4,1.7,4.1,3.9c0,0,0,0,0,0.1v26C48,38.2,46.2,40,43.9,40
      C44,40,44,40,43.9,40z M4.1,8C3,8,2,8.8,2,9.9c0,0,0,0,0,0.1v26c0,1.1,0.9,2,2,2c0,0,0,0,0.1,0h39.9c1.1,0,2-0.8,2.1-1.9
      c0,0,0,0,0-0.1V10c0-1.1-0.9-2-2-2c0,0,0,0-0.1,0H36c-0.4,0-0.7-0.2-0.9-0.6L32.4,2H15.6l-2.7,5.4C12.7,7.8,12.4,8,12,8H4.1z"/>
  </symbol>

  <symbol id="icon-video" viewBox="0 0 48 32" width="48" height="32">
    <title>Video</title>
    <path class="st0" d="M32,32H2c-1.1,0-2-0.9-2-2V2c0-1.1,0.9-2,2-2h30c1.1,0,2,0.9,2,2v8c0,0.6-0.4,1-1,1s-1-0.4-1-1V2H2v28h30v-8
      c0-0.6,0.4-1,1-1s1,0.4,1,1v8C34,31.1,33.1,32,32,32z"/>
    <path class="st0" d="M47,32c-0.2,0-0.4-0.1-0.5-0.2l-14-9c-0.4-0.3-0.5-0.9-0.2-1.4c0.3-0.4,0.9-0.5,1.3-0.3l12.5,8V2.8l-12.5,8
      c-0.5,0.3-1.1,0.1-1.4-0.4c-0.3-0.4-0.1-1,0.3-1.3l14-9c0.5-0.3,1.1-0.2,1.4,0.3C47.9,0.6,48,0.8,48,1v30C48,31.6,47.6,32,47,32z"/>
  </symbol>

  <symbol id="icon-play" viewBox="0 0 46 46" width="46" height="46">
    <title>Play</title>
    	<path class="st0" d="M18.4,33.35v-20.7L32.2,23 M23,0C10.3,0,0,10.3,0,23s10.3,23,23,23s23-10.3,23-23S35.7,0,23,0z" fill="#fbfbfb"/>
  </symbol>

  <symbol id="icon-arrow-down" viewBox="0 0 12 8">
    <path class="st0" d="M11.7,0.3c-0.4-0.4-1-0.3-1.4,0.1L9.7,1.1l0,0L6,5.5L2.3,1.1l0,0L1.7,0.4C1.3,0,0.7-0.1,0.3,0.3s-0.4,1-0.1,1.4
	l5,6C5.5,7.9,5.7,8,6,8l0,0l0,0c0.3,0,0.5-0.1,0.7-0.3l5-6C12.1,1.3,12.1,0.7,11.7,0.3z" fill="#363636"/>
  </symbol>

</svg>