<?xml version="1.0" encoding="utf-8"?>
<!-- Generator: Adobe Illustrator 24.0.1, SVG Export Plug-In . SVG Version: 6.00 Build 0)  -->
<svg width="32" height="32" version="1.1" id="icon-close" xmlns="http://www.w3.org/2000/svg" xmlns:xlink="http://www.w3.org/1999/xlink" x="0px" y="0px"
	 viewBox="0 0 32 32" style="enable-background:new 0 0 32 32;" xml:space="preserve">
<title>icon-close</title>
<path class="st0" d="M19.7,16l7.6-7.6c1.2-1.2,1.3-2.9,0.3-4c-1-1-2.8-0.9-4,0.3L16,12.3L8.4,4.7c-1.2-1.2-2.9-1.3-4-0.3
	s-0.9,2.8,0.3,4l7.6,7.6l-7.6,7.6c-1.2,1.2-1.3,2.9-0.3,4s2.8,0.9,4-0.3l7.6-7.6l7.6,7.6c1.2,1.2,2.9,1.3,4,0.3c1-1,0.9-2.8-0.3-4
	L19.7,16z" fill="#f4f4f4"/>
</svg>
