<?xml version="1.0" encoding="utf-8"?>
<!-- Generator: Adobe Illustrator 19.1.0, SVG Export Plug-In . SVG Version: 6.00 Build 0)  -->
<svg version="1.1" id="Camada_1" xmlns="http://www.w3.org/2000/svg" xmlns:xlink="http://www.w3.org/1999/xlink" x="0px" y="0px"
	 viewBox="0 0 88.9 88.9" style="enable-background:new 0 0 88.9 88.9;" xml:space="preserve">
<style type="text/css">
	.st0{fill:#FFE609;}
	.st1{fill:#4F4616;}
	.st2{fill:#998619;}
</style>
<g>
	<path class="st0" d="M44.4,9.3c-11.9,0-22.4,5.9-28.7,14.9c13.1,19.8,33.8,32.6,57.1,32.6c1.5,0,3.1-0.1,4.6-0.2
		c1.4-3.8,2.1-7.9,2.1-12.1C79.6,25,63.9,9.3,44.4,9.3z"/>
	<g>
		<g>
			<circle class="st1" cx="35.3" cy="26.5" r="9.8"/>
			<circle class="st1" cx="59" cy="30.8" r="8"/>
			<circle class="st1" cx="67.1" cy="48" r="2.7"/>
		</g>
		<path class="st1" d="M44.4,88.9C19.9,88.9,0,68.9,0,44.4C0,19.9,19.9,0,44.4,0c24.5,0,44.4,19.9,44.4,44.4
			C88.9,68.9,68.9,88.9,44.4,88.9L44.4,88.9z M31.4,77c4.2,1.7,8.6,2.5,13,2.5c4.9,0,9.7-1,14.1-3c-2.2-1.8-3.5-4.4-3.5-7.2
			c0-5.1,4.1-9.2,9.2-9.2c3.5,0,6.8,2.1,8.3,5.3c4.5-6.1,6.9-13.3,6.9-20.9c0-19.3-15.7-35.1-35.1-35.1C25.1,9.4,9.4,25.1,9.4,44.4
			c0,8,2.6,15.5,7.6,21.8c1.7-1.5,3.8-2.3,6.1-2.3c5.1,0,9.2,4.1,9.2,9.2C32.2,74.5,32,75.8,31.4,77L31.4,77z M43.7,71.8
			c-2.7,0-4.9-2.2-4.9-4.9c0-2.7,2.2-4.9,4.9-4.9c2.7,0,4.9,2.2,4.9,4.9C48.6,69.6,46.4,71.8,43.7,71.8L43.7,71.8z M16.1,53.1
			c-1.4,0-2.5-1.1-2.5-2.5c0-1.4,1.1-2.5,2.5-2.5s2.5,1.1,2.5,2.5C18.6,51.9,17.5,53.1,16.1,53.1L16.1,53.1z"/>
	</g>
	<path class="st2" d="M64.3,60.1c3.5,0,6.8,2.1,8.3,5.3c2-2.7,3.6-5.7,4.8-8.8c-0.3,0-0.6,0-0.9,0c-1.2,0.1-2.4,0.1-3.6,0.1
		c-0.7,0-1.5,0-2.2,0c-1.6-0.1-3.3-0.2-4.9-0.4C45.4,54,27.6,42,15.8,24.3c-4,5.7-6.4,12.7-6.4,20.2c0,8,2.6,15.5,7.6,21.8
		c1.7-1.5,3.8-2.3,6.1-2.3c5.1,0,9.2,4.1,9.2,9.2c0,1.3-0.3,2.6-0.9,3.8c4.2,1.7,8.6,2.5,13,2.5c4.9,0,9.7-1,14.1-3
		c-2.2-1.8-3.5-4.4-3.5-7.2C55.1,64.2,59.2,60.1,64.3,60.1z M16.1,53.1c-1.4,0-2.5-1.1-2.5-2.5c0-1.4,1.1-2.5,2.5-2.5
		s2.5,1.1,2.5,2.5C18.6,51.9,17.5,53.1,16.1,53.1z M43.7,71.8c-2.7,0-4.9-2.2-4.9-4.9c0-2.7,2.2-4.9,4.9-4.9c2.7,0,4.9,2.2,4.9,4.9
		C48.6,69.6,46.4,71.8,43.7,71.8z"/>
</g>
</svg>
