<?xml version="1.0" encoding="utf-8"?>
<!-- Generator: Adobe Illustrator 24.1.3, SVG Export Plug-In . SVG Version: 6.00 Build 0)  -->
<svg version="1.1" id="Layer_1" xmlns="http://www.w3.org/2000/svg" xmlns:xlink="http://www.w3.org/1999/xlink" x="0px" y="0px"
	 viewBox="0 0 133 38" width="133" height="38" style="enable-background:new 0 0 133 38;" xml:space="preserve">

<path fill="#f4f4f4" d="M21.4,7.7h-8.8l-1,5h8.1l-1.4,6.5h-8.1l-2,9.7H0L5.7,1.2h17L21.4,7.7z M29.8,28.9h-8.1l4.1-19.8h8.1L29.8,28.9z
	 M35.3,3.6c0,1.2-0.4,2.2-1.3,3c-0.9,0.8-2,1.1-3.5,1.1c-1.3,0-2.3-0.3-3.1-1c-0.8-0.7-1.2-1.5-1.2-2.5c0-1.2,0.4-2.2,1.3-3
	c0.9-0.8,2-1.1,3.5-1.1c1.2,0,2.3,0.3,3,1C34.9,1.7,35.3,2.5,35.3,3.6z M51.3,14.8h-4.4l-1.1,5.4c-0.2,0.8-0.3,1.5-0.3,2
	c0,0.8,0.4,1.2,1.3,1.2c0.8,0,1.6-0.2,2.6-0.5l-1.2,5.7c-0.6,0.2-1.4,0.4-2.5,0.6c-1.1,0.2-2.1,0.3-2.9,0.3c-3.7,0-5.6-1.8-5.6-5.4
	c0-0.5,0.1-1.2,0.3-2.1c0.2-0.9,0.7-3.3,1.4-7.1H36l1.3-5.7h2.8l0.9-4.6l8.4-2l-1.3,6.5h4.5L51.3,14.8z M71.1,28.9l-0.4-5.1h-8.1
	l-2.4,5.1h-9L66.2,1.2h10.2l3.1,27.7H71.1z M69.9,9.4c0-0.9,0-1.5,0.1-1.9h-0.2l-0.4,1l-0.7,1.7l-3.3,7.1h4.8l-0.4-6.9L69.9,9.4z
	 M107,15.8c0,2.7-0.5,5-1.6,7.1c-1.1,2.1-2.6,3.7-4.6,4.8c-2,1.1-4.3,1.7-6.9,1.7c-0.2,0-0.6,0-1.3-0.1c-0.7,0-1.1-0.1-1.1-0.1
	L89.6,38h-8.1L86,16.1c0.3-1.3,0.5-2.7,0.8-4c0.2-1.4,0.4-2.3,0.4-2.9H95c-0.1,1.1-0.2,2.3-0.4,3.5h0.1c1.8-2.7,4-4,6.7-4
	c1.7,0,3.1,0.7,4.1,2C106.5,12,107,13.7,107,15.8z M99,17.1c0-1.6-0.6-2.4-1.8-2.4c-0.8,0-1.6,0.5-2.3,1.6c-0.7,1-1.3,2.5-1.7,4.5
	L92.4,24c0.5,0.1,0.9,0.1,1.2,0.1c1.5,0,2.8-0.7,3.8-2.1C98.5,20.7,99,19,99,17.1z M133,15.8c0,2.7-0.5,5-1.6,7.1
	c-1.1,2.1-2.6,3.7-4.6,4.8c-2,1.1-4.3,1.7-6.9,1.7c-0.2,0-0.6,0-1.3-0.1c-0.7,0-1.1-0.1-1.1-0.1l-1.9,8.8h-8.1l4.6-21.9
	c0.3-1.3,0.5-2.7,0.8-4c0.2-1.4,0.4-2.3,0.4-2.9h7.7c-0.1,1.1-0.2,2.3-0.4,3.5h0.1c1.8-2.7,4-4,6.7-4c1.7,0,3.1,0.7,4.1,2
	C132.5,12,133,13.7,133,15.8z M125,17.1c0-1.6-0.6-2.4-1.8-2.4c-0.8,0-1.6,0.5-2.3,1.6c-0.7,1-1.3,2.5-1.7,4.5l-0.7,3.3
	c0.5,0.1,0.9,0.1,1.2,0.1c1.5,0,2.8-0.7,3.8-2.1C124.5,20.7,125,19,125,17.1z"/>
</svg>
