<?xml version="1.0" encoding="utf-8"?>
<!-- Generator: Adobe Illustrator 24.1.3, SVG Export Plug-In . SVG Version: 6.00 Build 0)  -->
<svg width="32" height="32" version="1.1" id="Layer_1" xmlns="http://www.w3.org/2000/svg" xmlns:xlink="http://www.w3.org/1999/xlink" x="0px" y="0px"
	 viewBox="0 0 32 32" style="enable-background:new 0 0 32 32;" xml:space="preserve">
<g>
	<g>
		<path d="M31.5,14.8L19.9,3.2c-0.3-0.3-0.8-0.5-1.2-0.5s-0.9,0.2-1.2,0.5l-1,1c-0.3,0.3-0.5,0.8-0.5,1.2
			c0,0.5,0.2,0.9,0.5,1.3l6.7,6.8H1.7c-1,0-1.7,0.8-1.7,1.7v1.5c0,1,0.8,1.8,1.7,1.8h21.5l-6.8,6.8c-0.3,0.3-0.5,0.8-0.5,1.2
			c0,0.5,0.2,0.9,0.5,1.2l1,1c0.3,0.3,0.8,0.5,1.2,0.5s0.9-0.2,1.2-0.5l11.6-11.6c0.3-0.3,0.5-0.8,0.5-1.2
			C32,15.5,31.8,15.1,31.5,14.8z" fill="#f4f4f4"/>
	</g>
</g>
</svg>
